<svg id="visual" viewBox="0 0 900 600" width="900" height="600" xmlns="http://www.w3.org/2000/svg" xmlns:xlink="http://www.w3.org/1999/xlink" version="1.1"><rect x="0" y="0" width="900" height="600" fill="#4831d4"></rect><path d="M0 97L16.7 106.2C33.3 115.3 66.7 133.7 100 140.5C133.3 147.3 166.7 142.7 200 146.5C233.3 150.3 266.7 162.7 300 169.8C333.3 177 366.7 179 400 171C433.3 163 466.7 145 500 144C533.3 143 566.7 159 600 165.7C633.3 172.3 666.7 169.7 700 171C733.3 172.3 766.7 177.7 800 183.2C833.3 188.7 866.7 194.3 883.3 197.2L900 200L900 0L883.3 0C866.7 0 833.3 0 800 0C766.7 0 733.3 0 700 0C666.7 0 633.3 0 600 0C566.7 0 533.3 0 500 0C466.7 0 433.3 0 400 0C366.7 0 333.3 0 300 0C266.7 0 233.3 0 200 0C166.7 0 133.3 0 100 0C66.7 0 33.3 0 16.7 0L0 0Z" fill="#ccf381" stroke-linecap="round" stroke-linejoin="miter"></path></svg>