<svg id="visual" viewBox="0 0 900 600" width="900" height="600" xmlns="http://www.w3.org/2000/svg" xmlns:xlink="http://www.w3.org/1999/xlink" version="1.1"><path d="M0 103L13.7 104C27.3 105 54.7 107 82 98C109.3 89 136.7 69 163.8 59C191 49 218 49 245.2 64C272.3 79 299.7 109 327 123C354.3 137 381.7 135 409 121C436.3 107 463.7 81 491 69C518.3 57 545.7 59 573 61C600.3 63 627.7 65 654.8 76C682 87 709 107 736.2 116C763.3 125 790.7 123 818 110C845.3 97 872.7 73 886.3 61L900 49L900 0L886.3 0C872.7 0 845.3 0 818 0C790.7 0 763.3 0 736.2 0C709 0 682 0 654.8 0C627.7 0 600.3 0 573 0C545.7 0 518.3 0 491 0C463.7 0 436.3 0 409 0C381.7 0 354.3 0 327 0C299.7 0 272.3 0 245.2 0C218 0 191 0 163.8 0C136.7 0 109.3 0 82 0C54.7 0 27.3 0 13.7 0L0 0Z" fill="#8372e7"></path><path d="M0 295L13.7 301C27.3 307 54.7 319 82 328C109.3 337 136.7 343 163.8 332C191 321 218 293 245.2 292C272.3 291 299.7 317 327 325C354.3 333 381.7 323 409 296C436.3 269 463.7 225 491 205C518.3 185 545.7 189 573 208C600.3 227 627.7 261 654.8 288C682 315 709 335 736.2 325C763.3 315 790.7 275 818 276C845.3 277 872.7 319 886.3 340L900 361L900 47L886.3 59C872.7 71 845.3 95 818 108C790.7 121 763.3 123 736.2 114C709 105 682 85 654.8 74C627.7 63 600.3 61 573 59C545.7 57 518.3 55 491 67C463.7 79 436.3 105 409 119C381.7 133 354.3 135 327 121C299.7 107 272.3 77 245.2 62C218 47 191 47 163.8 57C136.7 67 109.3 87 82 96C54.7 105 27.3 103 13.7 102L0 101Z" fill="#3929ae"></path><path d="M0 445L13.7 451C27.3 457 54.7 469 82 480C109.3 491 136.7 501 163.8 503C191 505 218 499 245.2 489C272.3 479 299.7 465 327 472C354.3 479 381.7 507 409 502C436.3 497 463.7 459 491 441C518.3 423 545.7 425 573 426C600.3 427 627.7 427 654.8 430C682 433 709 439 736.2 454C763.3 469 790.7 493 818 503C845.3 513 872.7 509 886.3 507L900 505L900 359L886.3 338C872.7 317 845.3 275 818 274C790.7 273 763.3 313 736.2 323C709 333 682 313 654.8 286C627.7 259 600.3 225 573 206C545.7 187 518.3 183 491 203C463.7 223 436.3 267 409 294C381.7 321 354.3 331 327 323C299.7 315 272.3 289 245.2 290C218 291 191 319 163.8 330C136.7 341 109.3 335 82 326C54.7 317 27.3 305 13.7 299L0 293Z" fill="#3929ae"></path><path d="M0 601L13.7 601C27.3 601 54.7 601 82 601C109.3 601 136.7 601 163.8 601C191 601 218 601 245.2 601C272.3 601 299.7 601 327 601C354.3 601 381.7 601 409 601C436.3 601 463.7 601 491 601C518.3 601 545.7 601 573 601C600.3 601 627.7 601 654.8 601C682 601 709 601 736.2 601C763.3 601 790.7 601 818 601C845.3 601 872.7 601 886.3 601L900 601L900 503L886.3 505C872.7 507 845.3 511 818 501C790.7 491 763.3 467 736.2 452C709 437 682 431 654.8 428C627.7 425 600.3 425 573 424C545.7 423 518.3 421 491 439C463.7 457 436.3 495 409 500C381.7 505 354.3 477 327 470C299.7 463 272.3 477 245.2 487C218 497 191 503 163.8 501C136.7 499 109.3 489 82 478C54.7 467 27.3 455 13.7 449L0 443Z" fill="#8372e7"></path></svg>